<mxfile>
    <diagram id="nRh6FPd7IBtaq03-V3Xk" name="ページ1">
        <mxGraphModel dx="870" dy="997" grid="1" gridSize="10" guides="1" tooltips="1" connect="1" arrows="1" fold="1" page="1" pageScale="1" pageWidth="827" pageHeight="1169" math="0" shadow="0">
            <root>
                <mxCell id="0"/>
                <mxCell id="1" parent="0"/>
                <mxCell id="35" value="" style="endArrow=classic;html=1;exitX=0.5;exitY=1;exitDx=0;exitDy=0;entryX=0.5;entryY=0;entryDx=0;entryDy=0;" edge="1" parent="1" source="27" target="34">
                    <mxGeometry width="50" height="50" relative="1" as="geometry">
                        <mxPoint x="180" y="930" as="sourcePoint"/>
                        <mxPoint x="230" y="880" as="targetPoint"/>
                    </mxGeometry>
                </mxCell>
                <mxCell id="33" value="l.show()&lt;br&gt;main()" style="rounded=0;whiteSpace=wrap;html=1;" vertex="1" parent="1">
                    <mxGeometry x="460" y="880" width="120" height="60" as="geometry"/>
                </mxCell>
                <mxCell id="26" value="" style="endArrow=classic;html=1;exitX=0.5;exitY=1;exitDx=0;exitDy=0;entryX=0.5;entryY=0;entryDx=0;entryDy=0;" parent="1" source="21" target="25" edge="1">
                    <mxGeometry width="50" height="50" relative="1" as="geometry">
                        <mxPoint x="390" y="340" as="sourcePoint"/>
                        <mxPoint x="440" y="290" as="targetPoint"/>
                    </mxGeometry>
                </mxCell>
                <mxCell id="20" value="" style="endArrow=classic;html=1;entryX=0.5;entryY=0;entryDx=0;entryDy=0;" parent="1" target="9" edge="1">
                    <mxGeometry width="50" height="50" relative="1" as="geometry">
                        <mxPoint x="150" y="610" as="sourcePoint"/>
                        <mxPoint x="190" y="550" as="targetPoint"/>
                        <Array as="points">
                            <mxPoint x="230" y="610"/>
                        </Array>
                    </mxGeometry>
                </mxCell>
                <mxCell id="19" value="" style="endArrow=classic;html=1;exitX=0.5;exitY=0;exitDx=0;exitDy=0;entryX=0.49;entryY=-0.103;entryDx=0;entryDy=0;entryPerimeter=0;" parent="1" source="12" target="11" edge="1">
                    <mxGeometry width="50" height="50" relative="1" as="geometry">
                        <mxPoint x="260" y="520" as="sourcePoint"/>
                        <mxPoint x="310" y="470" as="targetPoint"/>
                    </mxGeometry>
                </mxCell>
                <mxCell id="13" value="" style="endArrow=classic;html=1;exitX=0.5;exitY=1;exitDx=0;exitDy=0;entryX=0.5;entryY=1;entryDx=0;entryDy=0;" parent="1" source="2" target="12" edge="1">
                    <mxGeometry width="50" height="50" relative="1" as="geometry">
                        <mxPoint x="240" y="130" as="sourcePoint"/>
                        <mxPoint x="290" y="80" as="targetPoint"/>
                    </mxGeometry>
                </mxCell>
                <mxCell id="2" value="LinkedList().delete(self, num)" style="rounded=1;whiteSpace=wrap;html=1;" parent="1" vertex="1">
                    <mxGeometry x="40" y="20" width="120" height="60" as="geometry"/>
                </mxCell>
                <mxCell id="3" value="front = self.top&lt;br&gt;rear = front.next" style="rounded=0;whiteSpace=wrap;html=1;" parent="1" vertex="1">
                    <mxGeometry x="40" y="100" width="120" height="60" as="geometry"/>
                </mxCell>
                <mxCell id="4" value="while rear:" style="shape=loopLimit;whiteSpace=wrap;html=1;" parent="1" vertex="1">
                    <mxGeometry x="50" y="180" width="100" height="80" as="geometry"/>
                </mxCell>
                <mxCell id="5" value="rear.num == num" style="rhombus;whiteSpace=wrap;html=1;" parent="1" vertex="1">
                    <mxGeometry x="40" y="280" width="120" height="80" as="geometry"/>
                </mxCell>
                <mxCell id="6" value="front = rear&lt;br&gt;rear = rear.next" style="rounded=0;whiteSpace=wrap;html=1;" parent="1" vertex="1">
                    <mxGeometry x="40" y="380" width="120" height="60" as="geometry"/>
                </mxCell>
                <mxCell id="7" value="if not rear" style="rhombus;whiteSpace=wrap;html=1;" parent="1" vertex="1">
                    <mxGeometry x="50" y="570" width="100" height="70" as="geometry"/>
                </mxCell>
                <mxCell id="8" value="print('Data not found')&lt;br&gt;" style="rounded=0;whiteSpace=wrap;html=1;" parent="1" vertex="1">
                    <mxGeometry x="170" y="580" width="120" height="60" as="geometry"/>
                </mxCell>
                <mxCell id="9" value="end" style="rounded=1;whiteSpace=wrap;html=1;" parent="1" vertex="1">
                    <mxGeometry x="170" y="670" width="120" height="60" as="geometry"/>
                </mxCell>
                <mxCell id="10" value="front.next = rear.next&lt;br&gt;rear = None&lt;br&gt;print('削除しました')" style="rounded=0;whiteSpace=wrap;html=1;" parent="1" vertex="1">
                    <mxGeometry x="40" y="670" width="120" height="60" as="geometry"/>
                </mxCell>
                <mxCell id="11" value="end" style="rounded=1;whiteSpace=wrap;html=1;" parent="1" vertex="1">
                    <mxGeometry x="40" y="760" width="120" height="60" as="geometry"/>
                </mxCell>
                <mxCell id="12" value="endwhile" style="shape=loopLimit;whiteSpace=wrap;html=1;direction=west;" parent="1" vertex="1">
                    <mxGeometry x="50" y="460" width="100" height="80" as="geometry"/>
                </mxCell>
                <mxCell id="16" value="" style="endArrow=classic;html=1;exitX=1;exitY=0.5;exitDx=0;exitDy=0;entryX=1;entryY=0.5;entryDx=0;entryDy=0;" parent="1" source="5" target="4" edge="1">
                    <mxGeometry width="50" height="50" relative="1" as="geometry">
                        <mxPoint x="300" y="450" as="sourcePoint"/>
                        <mxPoint x="350" y="400" as="targetPoint"/>
                        <Array as="points">
                            <mxPoint x="210" y="320"/>
                            <mxPoint x="210" y="220"/>
                        </Array>
                    </mxGeometry>
                </mxCell>
                <mxCell id="17" value="Yes" style="text;html=1;align=center;verticalAlign=middle;resizable=0;points=[];autosize=1;strokeColor=none;" parent="1" vertex="1">
                    <mxGeometry x="165" y="290" width="30" height="20" as="geometry"/>
                </mxCell>
                <mxCell id="18" value="" style="endArrow=classic;html=1;exitX=0;exitY=0.5;exitDx=0;exitDy=0;entryX=0;entryY=0.5;entryDx=0;entryDy=0;" parent="1" source="6" target="4" edge="1">
                    <mxGeometry width="50" height="50" relative="1" as="geometry">
                        <mxPoint x="250" y="430" as="sourcePoint"/>
                        <mxPoint x="300" y="380" as="targetPoint"/>
                        <Array as="points">
                            <mxPoint x="20" y="410"/>
                            <mxPoint x="20" y="220"/>
                        </Array>
                    </mxGeometry>
                </mxCell>
                <mxCell id="21" value="main()" style="rounded=1;whiteSpace=wrap;html=1;" parent="1" vertex="1">
                    <mxGeometry x="460" y="30" width="120" height="60" as="geometry"/>
                </mxCell>
                <mxCell id="23" value="while num != 0" style="shape=loopLimit;whiteSpace=wrap;html=1;" parent="1" vertex="1">
                    <mxGeometry x="450" y="110" width="140" height="80" as="geometry"/>
                </mxCell>
                <mxCell id="24" value="num = int(input('登録番号？:))&lt;br&gt;l.delete()" style="rounded=0;whiteSpace=wrap;html=1;" parent="1" vertex="1">
                    <mxGeometry x="460" y="220" width="120" height="60" as="geometry"/>
                </mxCell>
                <mxCell id="25" value="end" style="rounded=1;whiteSpace=wrap;html=1;" parent="1" vertex="1">
                    <mxGeometry x="460" y="290" width="120" height="60" as="geometry"/>
                </mxCell>
                <mxCell id="27" value="start" style="rounded=1;whiteSpace=wrap;html=1;" vertex="1" parent="1">
                    <mxGeometry x="460" y="440" width="120" height="60" as="geometry"/>
                </mxCell>
                <mxCell id="28" value="l = LinkedList()&lt;br&gt;f = open('Zac_Japan.txt')&lt;br&gt;rows = f.readlines()" style="rounded=0;whiteSpace=wrap;html=1;" vertex="1" parent="1">
                    <mxGeometry x="455" y="515" width="130" height="70" as="geometry"/>
                </mxCell>
                <mxCell id="30" value="for row in rows" style="shape=loopLimit;whiteSpace=wrap;html=1;" vertex="1" parent="1">
                    <mxGeometry x="470" y="600" width="100" height="80" as="geometry"/>
                </mxCell>
                <mxCell id="31" value="ret = row.split(' ')&lt;br&gt;l.inssert(int(ret[0]), ret[1], ret[2])" style="rounded=0;whiteSpace=wrap;html=1;" vertex="1" parent="1">
                    <mxGeometry x="460" y="700" width="120" height="60" as="geometry"/>
                </mxCell>
                <mxCell id="32" value="endfor" style="shape=loopLimit;whiteSpace=wrap;html=1;direction=west;" vertex="1" parent="1">
                    <mxGeometry x="470" y="770" width="100" height="80" as="geometry"/>
                </mxCell>
                <mxCell id="34" value="end" style="rounded=1;whiteSpace=wrap;html=1;" vertex="1" parent="1">
                    <mxGeometry x="460" y="990" width="120" height="60" as="geometry"/>
                </mxCell>
            </root>
        </mxGraphModel>
    </diagram>
</mxfile>
